<?xml version="1.0" encoding="UTF-8" standalone="no"?>
<svg width="512" height="512" viewBox="0 0 512 512" fill="none" xmlns="http://www.w3.org/2000/svg">
  <!-- Simple clean gradient background -->
  <defs>
    <linearGradient id="primaryGradient" x1="0%" y1="0%" x2="100%" y2="100%">
      <stop offset="0%" stop-color="#0052cc" />
      <stop offset="100%" stop-color="#007bff" />
    </linearGradient>
  </defs>
  
  <!-- Simple circular background -->
  <circle cx="256" cy="256" r="240" fill="url(#primaryGradient)"/>
  
  <!-- Minimalist POS Terminal - slightly grey -->
  <rect x="126" y="136" width="260" height="140" rx="10" fill="#f5f5f5"/>
  
  <!-- Simple receipt - slightly grey -->
  <path d="M156 276h200v100h-200z" fill="#f9f9f9"/>
  <path d="M156 306 l200 0" stroke="#e0e0e0" stroke-width="2"/>
  <path d="M156 336 l200 0" stroke="#e0e0e0" stroke-width="2"/>
  <path d="M156 366 l200 0" stroke="#e0e0e0" stroke-width="2"/>
  
  <!-- Card reader on side -->
  <rect x="366" y="176" width="25" height="60" rx="4" fill="#2d3748"/>
  
  <!-- Simple screen content -->
  <rect x="156" y="156" width="200" height="10" rx="2" fill="#0068c4" opacity="0.9"/>
  <rect x="156" y="176" width="180" height="10" rx="2" fill="#0068c4" opacity="0.7"/>
  <rect x="156" y="196" width="160" height="10" rx="2" fill="#0068c4" opacity="0.5"/>
  <rect x="156" y="216" width="140" height="10" rx="2" fill="#0068c4" opacity="0.3"/>
  <rect x="156" y="236" width="120" height="10" rx="2" fill="#0068c4" opacity="0.2"/>
  
  <!-- Simple buttons -->
  <circle cx="206" cy="266" r="10" fill="#4CAF50"/>
  <circle cx="246" cy="266" r="10" fill="#F44336"/>
  <circle cx="286" cy="266" r="10" fill="#FFC107"/>
  <circle cx="326" cy="266" r="10" fill="#2196F3"/>
</svg>